<?xml version="1.0" encoding="UTF-8" standalone="no"?>
<!DOCTYPE svg PUBLIC "-//W3C//DTD SVG 1.1//EN" "http://www.w3.org/Graphics/SVG/1.1/DTD/svg11.dtd">
<svg width="100%" height="100%" viewBox="0 0 112 118" version="1.1" xmlns="http://www.w3.org/2000/svg" xmlns:xlink="http://www.w3.org/1999/xlink" xml:space="preserve" xmlns:serif="http://www.serif.com/" style="fill-rule:evenodd;clip-rule:evenodd;stroke-linecap:round;stroke-linejoin:round;stroke-miterlimit:1.5;">
    <g transform="matrix(1,0,0,1,-94.3353,-102.79)">
        <g id="earth" transform="matrix(2.64477,0,0,2.64477,55.5977,43.9411)">
            <path d="M52.002,45.703C52.002,45.705 52.002,45.706 52.002,45.707C52.002,54.574 44.706,61.87 35.839,61.87C26.973,61.87 19.676,54.574 19.676,45.707L19.676,45.699C19.676,36.833 26.973,29.536 35.839,29.536C44.706,29.536 52.002,36.833 52.002,45.699C52.002,45.701 52.002,45.702 52.002,45.703Z" style="fill:rgb(0,0,114);"/>
        </g>
        <g id="reflection" transform="matrix(1,0,0,1,-0.351366,-7.37865)">
            <path d="M176.736,151.991C176.736,151.994 176.736,151.998 176.736,152.001C176.736,159.229 170.788,165.177 163.56,165.177C156.332,165.177 150.384,159.229 150.384,152.001C150.384,151.998 150.384,151.994 150.384,151.991C150.384,151.988 150.384,151.984 150.384,151.981C150.384,144.752 156.332,138.805 163.56,138.805C170.788,138.805 176.736,144.752 176.736,151.981C176.736,151.984 176.736,151.988 176.736,151.991Z" style="fill:white;fill-rule:nonzero;"/>
        </g>
        <g id="Lua" transform="matrix(3.19516,0,0,3.33333,-638.301,-290.674)">
            <text x="236.212px" y="143.393px" style="font-family:'LucidaGrande', 'Lucida Grande', sans-serif;font-weight:500;font-size:12px;fill:rgb(242,242,242);">Lua</text>
        </g>
        <g transform="matrix(1,0,0,1,-17,-15.5)">
            <g id="modulename">
                <g transform="matrix(0.449483,-0.893289,0.893289,0.449483,-73.8834,192.719)">
                    <text x="116.169px" y="158.302px" style="font-family:'LucidaGrande', 'Lucida Grande', sans-serif;font-weight:500;font-size:12px;">p</text>
                </g>
                <g transform="matrix(0.531056,-0.847337,0.847337,0.531056,-68.9593,174.588)">
                    <text x="119.638px" y="151.595px" style="font-family:'LucidaGrande', 'Lucida Grande', sans-serif;font-weight:500;font-size:12px;">i</text>
                </g>
                <g transform="matrix(0.608061,-0.79389,0.79389,0.608061,-67.2062,157.067)">
                    <text x="121.419px" y="148.598px" style="font-family:'LucidaGrande', 'Lucida Grande', sans-serif;font-weight:500;font-size:12px;">g</text>
                </g>
                <g transform="matrix(0.714166,-0.699977,0.699977,0.714166,-61.0501,131.804)">
                    <text x="125.964px" y="142.655px" style="font-family:'LucidaGrande', 'Lucida Grande', sans-serif;font-weight:500;font-size:12px;">p</text>
                </g>
                <g transform="matrix(0.776707,-0.629862,0.629862,0.776707,-54.6899,116.572)">
                    <text x="131.426px" y="137.42px" style="font-family:'LucidaGrande', 'Lucida Grande', sans-serif;font-weight:500;font-size:12px;">i</text>
                </g>
                <g transform="matrix(0.83417,-0.551508,0.551508,0.83417,-50.1028,99.6878)">
                    <text x="134.065px" y="135.158px" style="font-family:'LucidaGrande', 'Lucida Grande', sans-serif;font-weight:500;font-size:12px;">o</text>
                </g>
                <g transform="matrix(0.89873,-0.438503,0.438503,0.89873,-41.5328,78.3596)">
                    <text x="140.223px" y="131.099px" style="font-family:'LucidaGrande', 'Lucida Grande', sans-serif;font-weight:500;font-size:12px;">d</text>
                </g>
            </g>
        </g>
        <g id="orbit" transform="matrix(0.00109119,-1.70769,1.69231,0.00108136,-35.6601,692.913)">
            <path d="M319.611,78.613C316.347,77.544 312.934,77 309.5,77C291.563,77 277,91.563 277,109.5C277,127.437 291.563,142 309.5,142C327.437,142 342,127.437 342,109.5C342,106.066 341.456,102.653 340.387,99.389C341.456,102.653 342,106.066 342,109.5C342,127.437 327.437,142 309.5,142C291.563,142 277,127.437 277,109.5C277,91.563 291.563,77 309.5,77C312.934,77 316.347,77.544 319.611,78.613Z" style="fill:white;fill-opacity:0;stroke:black;stroke-width:0.76px;stroke-dasharray:3.06,3.06,0,0;stroke-dashoffset:-1.53;"/>
        </g>
        <g id="moon" transform="matrix(1,0,0,1,26.528,-36.0149)">
            <path d="M176.736,151.991C176.736,151.994 176.736,151.998 176.736,152.001C176.736,159.229 170.788,165.177 163.56,165.177C156.332,165.177 150.384,159.229 150.384,152.001C150.384,151.998 150.384,151.994 150.384,151.991C150.384,151.988 150.384,151.984 150.384,151.981C150.384,144.752 156.332,138.805 163.56,138.805C170.788,138.805 176.736,144.752 176.736,151.981C176.736,151.984 176.736,151.988 176.736,151.991Z" style="fill:rgb(0,0,114);fill-rule:nonzero;"/>
        </g>
    </g>
</svg>
