<?xml version="1.0" encoding="UTF-8" standalone="no"?>
<!DOCTYPE svg PUBLIC "-//W3C//DTD SVG 1.1//EN" "http://www.w3.org/Graphics/SVG/1.1/DTD/svg11.dtd">
<svg width="100%" height="100%" viewBox="0 0 112 118" version="1.1" xmlns="http://www.w3.org/2000/svg" xmlns:xlink="http://www.w3.org/1999/xlink" xml:space="preserve" xmlns:serif="http://www.serif.com/" style="fill-rule:evenodd;clip-rule:evenodd;stroke-linecap:round;stroke-linejoin:round;stroke-miterlimit:1.5;">
    <g transform="matrix(1,0,0,1,-94.35,-102.79)">
        <g id="earth" transform="matrix(2.64477,0,0,2.64477,55.5977,43.9411)">
            <path d="M52.002,45.703C52.002,45.705 52.002,45.706 52.002,45.707C52.002,54.574 44.706,61.87 35.839,61.87C26.973,61.87 19.676,54.574 19.676,45.707L19.676,45.699C19.676,36.833 26.973,29.536 35.839,29.536C44.706,29.536 52.002,36.833 52.002,45.699C52.002,45.701 52.002,45.702 52.002,45.703Z" style="fill:rgb(0,0,114);"/>
        </g>
        <g id="reflection" transform="matrix(1,0,0,1,-0.351366,-7.37865)">
            <path d="M176.736,151.991C176.736,151.994 176.736,151.998 176.736,152.001C176.736,159.229 170.788,165.177 163.56,165.177C156.332,165.177 150.384,159.229 150.384,152.001C150.384,151.998 150.384,151.994 150.384,151.991C150.384,151.988 150.384,151.984 150.384,151.981C150.384,144.752 156.332,138.805 163.56,138.805C170.788,138.805 176.736,144.752 176.736,151.981C176.736,151.984 176.736,151.988 176.736,151.991Z" style="fill:white;fill-rule:nonzero;"/>
        </g>
        <g id="Lua" transform="matrix(3.19516,0,0,3.33333,-638.301,-290.674)">
            <text x="236.212px" y="143.393px" style="font-family:'LucidaGrande', 'Lucida Grande', sans-serif;font-weight:500;font-size:12px;fill:rgb(242,242,242);">Lua</text>
        </g>
        <g transform="matrix(1,0,0,1,-17,-15.5)">
            <g id="modulename">
                <g transform="matrix(0.524689,-0.851294,0.851294,0.524689,-70.6476,175.932)">
                    <text x="118.643px" y="153.232px" style="font-family:'LucidaGrande', 'Lucida Grande', sans-serif;font-weight:500;font-size:12px;">S</text>
                </g>
                <g transform="matrix(0.635479,-0.772118,0.772118,0.635479,-66.4778,150.549)">
                    <text x="121.97px" y="147.68px" style="font-family:'LucidaGrande', 'Lucida Grande', sans-serif;font-weight:500;font-size:12px;">N</text>
                </g>
                <g transform="matrix(0.757784,-0.652505,0.652505,0.757784,-58.3353,120.376)">
                    <text x="127.585px" y="140.763px" style="font-family:'LucidaGrande', 'Lucida Grande', sans-serif;font-weight:500;font-size:12px;">M</text>
                </g>
                <g transform="matrix(0.85223,-0.523168,0.523168,0.85223,-48.0391,94.1131)">
                    <text x="135.499px" y="134.096px" style="font-family:'LucidaGrande', 'Lucida Grande', sans-serif;font-weight:500;font-size:12px;">P</text>
                </g>
            </g>
        </g>
        <g id="orbit_template" transform="matrix(-1.50685,0,0,1.52898,272.808,-191.487)">
            <path d="M95.075,198.618C90.758,196.889 86.15,196 81.5,196C61.355,196 45,212.355 45,232.5C45,252.645 61.355,269 81.5,269C101.645,269 118,252.645 118,232.5C118,227.85 117.111,223.242 115.382,218.925" style="fill:white;fill-opacity:0;stroke:black;stroke-width:0.86px;stroke-dasharray:3.43,3.43,0,0;stroke-dashoffset:-1.71;"/>
        </g>
        <g id="moon" transform="matrix(1,0,0,1,26.528,-36.0149)">
            <path d="M176.736,151.991C176.736,151.994 176.736,151.998 176.736,152.001C176.736,159.229 170.788,165.177 163.56,165.177C156.332,165.177 150.384,159.229 150.384,152.001C150.384,151.998 150.384,151.994 150.384,151.991C150.384,151.988 150.384,151.984 150.384,151.981C150.384,144.752 156.332,138.805 163.56,138.805C170.788,138.805 176.736,144.752 176.736,151.981C176.736,151.984 176.736,151.988 176.736,151.991Z" style="fill:rgb(0,0,114);fill-rule:nonzero;"/>
        </g>
    </g>
</svg>
