<?xml version="1.0" encoding="UTF-8" standalone="no"?>
<!DOCTYPE svg PUBLIC "-//W3C//DTD SVG 1.1//EN" "http://www.w3.org/Graphics/SVG/1.1/DTD/svg11.dtd">
<svg width="100%" height="100%" viewBox="0 0 112 119" version="1.1" xmlns="http://www.w3.org/2000/svg" xmlns:xlink="http://www.w3.org/1999/xlink" xml:space="preserve" xmlns:serif="http://www.serif.com/" style="fill-rule:evenodd;clip-rule:evenodd;stroke-linecap:round;stroke-linejoin:round;stroke-miterlimit:1.5;">
    <g transform="matrix(1,0,0,1,-94.35,-102.79)">
        <g id="earth" transform="matrix(2.64477,0,0,2.64477,55.5977,43.9411)">
            <path d="M52.002,45.703C52.002,45.705 52.002,45.706 52.002,45.707C52.002,54.574 44.706,61.87 35.839,61.87C26.973,61.87 19.676,54.574 19.676,45.707L19.676,45.699C19.676,36.833 26.973,29.536 35.839,29.536C44.706,29.536 52.002,36.833 52.002,45.699C52.002,45.701 52.002,45.702 52.002,45.703Z" style="fill:rgb(0,0,114);"/>
        </g>
        <g id="reflection" transform="matrix(1,0,0,1,-0.351366,-7.37865)">
            <path d="M176.736,151.991C176.736,151.994 176.736,151.998 176.736,152.001C176.736,159.229 170.788,165.177 163.56,165.177C156.332,165.177 150.384,159.229 150.384,152.001C150.384,151.998 150.384,151.994 150.384,151.991C150.384,151.988 150.384,151.984 150.384,151.981C150.384,144.752 156.332,138.805 163.56,138.805C170.788,138.805 176.736,144.752 176.736,151.981C176.736,151.984 176.736,151.988 176.736,151.991Z" style="fill:white;fill-rule:nonzero;"/>
        </g>
        <g id="Lua" transform="matrix(3.19516,0,0,3.33333,-638.301,-290.674)">
            <text x="236.212px" y="143.393px" style="font-family:'LucidaGrande', 'Lucida Grande', sans-serif;font-weight:500;font-size:12px;fill:rgb(242,242,242);">Lua</text>
        </g>
        <g transform="matrix(1,0,0,1,-17,-15.5)">
            <g id="modulename">
                <g transform="matrix(0.311661,-0.950193,0.950193,0.311661,-74.9223,223.216)">
                    <text x="113.843px" y="165.32px" style="font-family:'LucidaGrande', 'Lucida Grande', sans-serif;font-weight:500;font-size:12px;">s</text>
                </g>
                <g transform="matrix(0.416395,-0.909184,0.909184,0.416395,-73.8431,199.983)">
                    <text x="115.737px" y="159.511px" style="font-family:'LucidaGrande', 'Lucida Grande', sans-serif;font-weight:500;font-size:12px;">e</text>
                </g>
                <g transform="matrix(0.529467,-0.84833,0.84833,0.529467,-70.9792,174.838)">
                    <text x="118.513px" y="153.404px" style="font-family:'LucidaGrande', 'Lucida Grande', sans-serif;font-weight:500;font-size:12px;">n</text>
                </g>
                <g transform="matrix(0.627105,-0.778935,0.778935,0.627105,-65.8004,152.773)">
                    <text x="122.485px" y="147.111px" style="font-family:'LucidaGrande', 'Lucida Grande', sans-serif;font-weight:500;font-size:12px;">s</text>
                </g>
                <g transform="matrix(0.710508,-0.703689,0.703689,0.710508,-60.769,132.938)">
                    <text x="126.324px" y="142.327px" style="font-family:'LucidaGrande', 'Lucida Grande', sans-serif;font-weight:500;font-size:12px;">e</text>
                </g>
                <g transform="matrix(0.794761,-0.606922,0.606922,0.794761,-54.185,110.968)">
                    <text x="131.067px" y="137.601px" style="font-family:'LucidaGrande', 'Lucida Grande', sans-serif;font-weight:500;font-size:12px;">h</text>
                </g>
                <g transform="matrix(0.865992,-0.500057,0.500057,0.865992,-46.1975,89.802)">
                    <text x="136.989px" y="133.095px" style="font-family:'LucidaGrande', 'Lucida Grande', sans-serif;font-weight:500;font-size:12px;">a</text>
                </g>
                <g transform="matrix(0.910649,-0.41318,0.41318,0.910649,-39.2262,74.2308)">
                    <text x="142.77px" y="129.812px" style="font-family:'LucidaGrande', 'Lucida Grande', sans-serif;font-weight:500;font-size:12px;">t</text>
                </g>
                <g transform="matrix(0.945259,-0.326322,0.326322,0.945259,-32.4049,58.6999)">
                    <text x="146.835px" y="127.936px" style="font-family:'ArialHebrewScholar', 'Arial Hebrew Scholar';font-size:12px;">2</text>
                </g>
            </g>
        </g>
        <g id="orbit_template" transform="matrix(-1.50685,0.0136986,0,1.52898,272.808,-192.104)">
            <path d="M88.868,196.751C86.444,196.252 83.975,196 81.5,196C61.355,196 45,212.355 45,232.5C45,252.645 61.355,269 81.5,269C101.645,269 118,252.645 118,232.5C118,230.025 117.748,227.556 117.249,225.132" style="fill:white;fill-opacity:0;stroke:black;stroke-width:0.85px;stroke-dasharray:3.41,3.41,0,0;stroke-dashoffset:-1.71;"/>
        </g>
        <g id="moon" transform="matrix(1,0,0,1,26.528,-36.0149)">
            <path d="M176.736,151.991C176.736,151.994 176.736,151.998 176.736,152.001C176.736,159.229 170.788,165.177 163.56,165.177C156.332,165.177 150.384,159.229 150.384,152.001C150.384,151.998 150.384,151.994 150.384,151.991C150.384,151.988 150.384,151.984 150.384,151.981C150.384,144.752 156.332,138.805 163.56,138.805C170.788,138.805 176.736,144.752 176.736,151.981C176.736,151.984 176.736,151.988 176.736,151.991Z" style="fill:rgb(0,0,114);fill-rule:nonzero;"/>
        </g>
    </g>
</svg>
