<?xml version="1.0" encoding="UTF-8" standalone="no"?>
<!DOCTYPE svg PUBLIC "-//W3C//DTD SVG 1.1//EN" "http://www.w3.org/Graphics/SVG/1.1/DTD/svg11.dtd">
<svg width="100%" height="100%" viewBox="0 0 114 118" version="1.1" xmlns="http://www.w3.org/2000/svg" xmlns:xlink="http://www.w3.org/1999/xlink" xml:space="preserve" xmlns:serif="http://www.serif.com/" style="fill-rule:evenodd;clip-rule:evenodd;stroke-linecap:round;stroke-linejoin:round;stroke-miterlimit:1.5;">
    <g transform="matrix(1,0,0,1,-92.1356,-102.79)">
        <g id="earth" transform="matrix(2.64477,0,0,2.64477,55.5977,43.9411)">
            <path d="M52.002,45.703C52.002,45.705 52.002,45.706 52.002,45.707C52.002,54.574 44.706,61.87 35.839,61.87C26.973,61.87 19.676,54.574 19.676,45.707L19.676,45.699C19.676,36.833 26.973,29.536 35.839,29.536C44.706,29.536 52.002,36.833 52.002,45.699C52.002,45.701 52.002,45.702 52.002,45.703Z" style="fill:rgb(0,0,114);"/>
        </g>
        <g id="reflection" transform="matrix(1,0,0,1,-0.351366,-7.37865)">
            <path d="M176.736,151.991C176.736,151.994 176.736,151.998 176.736,152.001C176.736,159.229 170.788,165.177 163.56,165.177C156.332,165.177 150.384,159.229 150.384,152.001C150.384,151.998 150.384,151.994 150.384,151.991C150.384,151.988 150.384,151.984 150.384,151.981C150.384,144.752 156.332,138.805 163.56,138.805C170.788,138.805 176.736,144.752 176.736,151.981C176.736,151.984 176.736,151.988 176.736,151.991Z" style="fill:white;fill-rule:nonzero;"/>
        </g>
        <g id="Lua" transform="matrix(3.19516,0,0,3.33333,-638.301,-290.674)">
            <text x="236.212px" y="143.393px" style="font-family:'LucidaGrande', 'Lucida Grande', sans-serif;font-weight:500;font-size:12px;fill:rgb(242,242,242);">Lua</text>
        </g>
        <g transform="matrix(1,0,0,1,-17,-15.5)">
            <g id="modulename">
                <g transform="matrix(0.191342,-0.981523,0.981523,0.191342,-73.1561,249.843)">
                    <text x="112.62px" y="171.319px" style="font-family:'LucidaGrande', 'Lucida Grande', sans-serif;font-weight:500;font-size:12px;">t</text>
                </g>
                <g transform="matrix(0.28709,-0.957904,0.957904,0.28709,-75.1746,228.79)">
                    <text x="113.433px" y="166.899px" style="font-family:'LucidaGrande', 'Lucida Grande', sans-serif;font-weight:500;font-size:12px;">e</text>
                </g>
                <g transform="matrix(0.437966,-0.898992,0.898992,0.437966,-75.8752,195.468)">
                    <text x="115.192px" y="160.416px" style="font-family:'LucidaGrande', 'Lucida Grande', sans-serif;font-weight:500;font-size:12px;">m</text>
                </g>
                <g transform="matrix(0.584714,-0.811239,0.811239,0.584714,-68.8197,162.326)">
                    <text x="120.231px" y="150.381px" style="font-family:'LucidaGrande', 'Lucida Grande', sans-serif;font-weight:500;font-size:12px;">p</text>
                </g>
                <g transform="matrix(0.675374,-0.737476,0.737476,0.675374,-62.975,141.476)">
                    <text x="124.669px" y="144.27px" style="font-family:'LucidaGrande', 'Lucida Grande', sans-serif;font-weight:500;font-size:12px;">s</text>
                </g>
                <g transform="matrix(0.753875,-0.657018,0.657018,0.753875,-57.484,122.035)">
                    <text x="128.801px" y="139.742px" style="font-family:'LucidaGrande', 'Lucida Grande', sans-serif;font-weight:500;font-size:12px;">e</text>
                </g>
                <g transform="matrix(0.832085,-0.554648,0.554648,0.832085,-50.3653,100.285)">
                    <text x="133.839px" y="135.325px" style="font-family:'LucidaGrande', 'Lucida Grande', sans-serif;font-weight:500;font-size:12px;">n</text>
                </g>
                <g transform="matrix(0.893296,-0.449468,0.449468,0.893296,-42.2404,80.5256)">
                    <text x="140.054px" y="131.228px" style="font-family:'LucidaGrande', 'Lucida Grande', sans-serif;font-weight:500;font-size:12px;">s</text>
                </g>
                <g transform="matrix(0.941652,-0.336588,0.336588,0.941652,-33.3937,60.2389)">
                    <text x="145.514px" y="128.438px" style="font-family:'LucidaGrande', 'Lucida Grande', sans-serif;font-weight:500;font-size:12px;">o</text>
                </g>
                <g transform="matrix(0.97529,-0.220929,0.220929,0.97529,-23.1861,40.6993)">
                    <text x="152.468px" y="126.001px" style="font-family:'LucidaGrande', 'Lucida Grande', sans-serif;font-weight:500;font-size:12px;">r</text>
                </g>
            </g>
        </g>
        <g id="orbit" transform="matrix(0.00109119,-1.70769,1.69231,0.00108136,-35.6601,692.913)">
            <path d="M309.5,77C291.551,77 277,91.551 277,109.5C277,127.437 291.563,142 309.5,142C327.449,142 342,127.449 342,109.5C342,127.449 327.449,142 309.5,142C291.563,142 277,127.437 277,109.5C277,91.551 291.551,77 309.5,77Z" style="fill:white;fill-opacity:0;stroke:black;stroke-width:0.76px;stroke-dasharray:3.06,3.06,0,0;stroke-dashoffset:-1.53;"/>
        </g>
        <g id="moon" transform="matrix(1,0,0,1,26.528,-36.0149)">
            <path d="M176.736,151.991C176.736,151.994 176.736,151.998 176.736,152.001C176.736,159.229 170.788,165.177 163.56,165.177C156.332,165.177 150.384,159.229 150.384,152.001C150.384,151.998 150.384,151.994 150.384,151.991C150.384,151.988 150.384,151.984 150.384,151.981C150.384,144.752 156.332,138.805 163.56,138.805C170.788,138.805 176.736,144.752 176.736,151.981C176.736,151.984 176.736,151.988 176.736,151.991Z" style="fill:rgb(0,0,114);fill-rule:nonzero;"/>
        </g>
    </g>
</svg>
