<?xml version="1.0" encoding="UTF-8" standalone="no"?>
<!DOCTYPE svg PUBLIC "-//W3C//DTD SVG 1.1//EN" "http://www.w3.org/Graphics/SVG/1.1/DTD/svg11.dtd">
<svg width="100%" height="100%" viewBox="0 0 112 118" version="1.1" xmlns="http://www.w3.org/2000/svg" xmlns:xlink="http://www.w3.org/1999/xlink" xml:space="preserve" xmlns:serif="http://www.serif.com/" style="fill-rule:evenodd;clip-rule:evenodd;stroke-linecap:round;stroke-linejoin:round;stroke-miterlimit:1.5;">
    <g transform="matrix(1,0,0,1,-94.35,-102.79)">
        <g id="earth" transform="matrix(2.64477,0,0,2.64477,55.5977,43.9411)">
            <path d="M52.002,45.703C52.002,45.705 52.002,45.706 52.002,45.707C52.002,54.574 44.706,61.87 35.839,61.87C26.973,61.87 19.676,54.574 19.676,45.707L19.676,45.699C19.676,36.833 26.973,29.536 35.839,29.536C44.706,29.536 52.002,36.833 52.002,45.699C52.002,45.701 52.002,45.702 52.002,45.703Z" style="fill:rgb(0,0,114);"/>
        </g>
        <g id="reflection" transform="matrix(1,0,0,1,-0.351366,-7.37865)">
            <path d="M176.736,151.991C176.736,151.994 176.736,151.998 176.736,152.001C176.736,159.229 170.788,165.177 163.56,165.177C156.332,165.177 150.384,159.229 150.384,152.001C150.384,151.998 150.384,151.994 150.384,151.991C150.384,151.988 150.384,151.984 150.384,151.981C150.384,144.752 156.332,138.805 163.56,138.805C170.788,138.805 176.736,144.752 176.736,151.981C176.736,151.984 176.736,151.988 176.736,151.991Z" style="fill:white;fill-rule:nonzero;"/>
        </g>
        <g id="Lua" transform="matrix(3.19516,0,0,3.33333,-638.301,-290.674)">
            <text x="236.212px" y="143.393px" style="font-family:'LucidaGrande', 'Lucida Grande', sans-serif;font-weight:500;font-size:12px;fill:rgb(242,242,242);">Lua</text>
        </g>
        <g transform="matrix(1,0,0,1,-17,-15.5)">
            <g id="modulename">
                <g transform="matrix(0.507659,-0.861558,0.861558,0.507659,-71.7502,179.722)">
                    <text x="117.875px" y="154.64px" style="font-family:'LucidaGrande', 'Lucida Grande', sans-serif;font-weight:500;font-size:12px;">Y</text>
                </g>
                <g transform="matrix(0.623035,-0.782194,0.782194,0.623035,-66.92,153.507)">
                    <text x="121.651px" y="148.182px" style="font-family:'LucidaGrande', 'Lucida Grande', sans-serif;font-weight:500;font-size:12px;">A</text>
                </g>
                <g transform="matrix(0.72733,-0.686288,0.686288,0.72733,-59.9154,128.601)">
                    <text x="126.848px" y="141.702px" style="font-family:'LucidaGrande', 'Lucida Grande', sans-serif;font-weight:500;font-size:12px;">T</text>
                </g>
                <g transform="matrix(0.80733,-0.590101,0.590101,0.80733,-52.695,107.655)">
                    <text x="132.387px" y="136.523px" style="font-family:'LucidaGrande', 'Lucida Grande', sans-serif;font-weight:500;font-size:12px;">S</text>
                </g>
            </g>
        </g>
        <g id="orbit" transform="matrix(-1.50685,0,0,1.52898,272.808,-191.487)">
            <path d="M95.983,198.996C91.41,197.02 86.482,196 81.5,196C61.355,196 45,212.355 45,232.5C45,252.645 61.355,269 81.5,269C101.645,269 118,252.645 118,232.5C118,227.518 116.98,222.59 115.004,218.017" style="fill:white;fill-opacity:0;stroke:black;stroke-width:0.86px;stroke-dasharray:3.43,3.43,0,0;stroke-dashoffset:-1.71;"/>
        </g>
        <g id="moon" transform="matrix(1,0,0,1,26.528,-36.0149)">
            <path d="M176.736,151.991C176.736,151.994 176.736,151.998 176.736,152.001C176.736,159.229 170.788,165.177 163.56,165.177C156.332,165.177 150.384,159.229 150.384,152.001C150.384,151.998 150.384,151.994 150.384,151.991C150.384,151.988 150.384,151.984 150.384,151.981C150.384,144.752 156.332,138.805 163.56,138.805C170.788,138.805 176.736,144.752 176.736,151.981C176.736,151.984 176.736,151.988 176.736,151.991Z" style="fill:rgb(0,0,114);fill-rule:nonzero;"/>
        </g>
    </g>
</svg>
